<svg width="39" height="39" viewBox="0 0 39 39" fill="none" xmlns="http://www.w3.org/2000/svg">
<path id="Facebook" d="M35.2273 0H3.52273C1.57642 0 0 1.57642 0 3.52273V35.2273C0 37.1736 1.57642 38.75 3.52273 38.75H21.1364V22.8977H15.8523V17.6136H21.1364V14.7761C21.1364 9.40392 23.7537 7.04545 28.2188 7.04545C30.3571 7.04545 31.4879 7.20398 32.0234 7.27619V12.3295H28.978C27.0827 12.3295 26.4205 13.33 26.4205 15.3556V17.6136H31.9758L31.2219 22.8977H26.4205V38.75H35.2273C37.1736 38.75 38.75 37.1736 38.75 35.2273V3.52273C38.75 1.57642 37.1718 0 35.2273 0Z" fill="#1877F2"/>
</svg>
