<svg width="40" height="40" viewBox="0 0 40 40" fill="none" xmlns="http://www.w3.org/2000/svg">
<path id="Instagram" d="M11.8718 0.5C5.60095 0.5 0.5 5.60567 0.5 11.8782V28.1282C0.5 34.399 5.60567 39.5 11.8782 39.5H28.1282C34.399 39.5 39.5 34.3943 39.5 28.1218V11.8718C39.5 5.60095 34.3943 0.5 28.1218 0.5H11.8718ZM31.375 7C32.272 7 33 7.728 33 8.625C33 9.522 32.272 10.25 31.375 10.25C30.478 10.25 29.75 9.522 29.75 8.625C29.75 7.728 30.478 7 31.375 7ZM20 10.25C25.3771 10.25 29.75 14.6229 29.75 20C29.75 25.3771 25.3771 29.75 20 29.75C14.6229 29.75 10.25 25.3771 10.25 20C10.25 14.6229 14.6229 10.25 20 10.25ZM20 13.5C18.2761 13.5 16.6228 14.1848 15.4038 15.4038C14.1848 16.6228 13.5 18.2761 13.5 20C13.5 21.7239 14.1848 23.3772 15.4038 24.5962C16.6228 25.8152 18.2761 26.5 20 26.5C21.7239 26.5 23.3772 25.8152 24.5962 24.5962C25.8152 23.3772 26.5 21.7239 26.5 20C26.5 18.2761 25.8152 16.6228 24.5962 15.4038C23.3772 14.1848 21.7239 13.5 20 13.5Z" fill="url(#paint0_linear_698_20)"/>
<defs>
<linearGradient id="paint0_linear_698_20" x1="6" y1="1" x2="20" y2="39.5" gradientUnits="userSpaceOnUse">
<stop stop-color="#833AB4"/>
<stop offset="0.5" stop-color="#E1306C"/>
<stop offset="1" stop-color="#FFDC80"/>
</linearGradient>
</defs>
</svg>
