<svg width="39" height="39" viewBox="0 0 39 39" fill="none" xmlns="http://www.w3.org/2000/svg">
<path id="LinkedIn" d="M35.2273 0H3.52273C1.57642 0 0 1.57642 0 3.52273V35.2273C0 37.1736 1.57642 38.75 3.52273 38.75H35.2273C37.1736 38.75 38.75 37.1736 38.75 35.2273V3.52273C38.75 1.57642 37.1736 0 35.2273 0ZM12.2485 31.7045H7.0525V14.9857H12.2485V31.7045ZM9.59767 12.5955C7.92261 12.5955 6.56813 11.2375 6.56813 9.56597C6.56813 7.89443 7.92438 6.53818 9.59767 6.53818C11.2674 6.53818 12.6255 7.89619 12.6255 9.56597C12.6255 11.2375 11.2674 12.5955 9.59767 12.5955ZM31.7116 31.7045H26.5191V23.5741C26.5191 21.6348 26.4839 19.1407 23.8189 19.1407C21.1152 19.1407 20.6995 21.2526 20.6995 23.4332V31.7045H15.507V14.9857H20.4917V17.2702H20.5622C21.2561 15.9562 22.9506 14.57 25.4781 14.57C30.7393 14.57 31.7116 18.0328 31.7116 22.5349V31.7045V31.7045Z" fill="#0077B5"/>
</svg>
